# xmcd
#
# Track frame offsets: 
#        150
#        10939
#        23313
#        33709
#        45399
#        56577
#        68306
#        79184
#        89717
#        100682
#        110923
#        124126
#        136144
#        145656
#        155047
#        164663
#        174161
#        185350
#        198052
#        208178
#        219540
#        230080
#
# Disc length: 3240 seconds
#
# Revision: 0
# Processed by: cddbd v1.5.2PL0 Copyright (c) Steve Scherf et al.
# Submitted via: ExactAudioCopy v0.95b4
#
DISCID=2d0ca616
DTITLE=Various Artist - The Best of Chief Records Volume 2
DYEAR=1900
DGENRE=Blues
TTITLE0=The Labradors/Queen of Swing
TTITLE1=Lillian Offitt/Oh Mama
TTITLE2=Junior Wells/You Sure Look Good to Me
TTITLE3=The Duchess/Will I Ever Make It
TTITLE4=Mel London/The Man From the Island
TTITLE5=Bobby and Lucy/I Feel So Strange
TTITLE6=Elmore James/Coming Home
TTITLE7=Junior Wells/Cha Cha Cha in Blue
TTITLE8=Magic Sam/Blue Light Boogie
TTITLE9=Lillian Offitt/Shine On
TTITLE10=G. Davy/Did You Ever Love Someone?
TTITLE11=Junior Wells/Two Headed Woman
TTITLE12=Earl Hooker/Rockin' With the Kid
TTITLE13=The Duchess/Every Boy in Town
TTITLE14=Magic SaEverynight About This Time
TTITLE15=Junior Wells/Love Me
TTITLE16=LillianOffitt/Troubles
TTITLE17=The Four Duchess/Queens Without a Knight
TTITLE18=Bobby and Lucy/It's Nothing
TTITLE19=Junior Wells/It Hurts Me Too
TTITLE20=Magic Sam/Square Dance Rock Part 1
TTITLE21=Magic Sam/Square Dance Rock Part 2
EXTD=
EXTT0=
EXTT1=
EXTT2=
EXTT3=
EXTT4=
EXTT5=
EXTT6=
EXTT7=
EXTT8=
EXTT9=
EXTT10=
EXTT11=
EXTT12=
EXTT13=
EXTT14=
EXTT15=
EXTT16=
EXTT17=
EXTT18=
EXTT19=
EXTT20=
EXTT21=
PLAYORDER=
